<svg width="105" height="138" viewBox="0 0 105 138" fill="none" xmlns="http://www.w3.org/2000/svg">
<path d="M46.6697 135.216C7.30654 78.4419 0 72.6152 0 51.75C0 23.1692 23.288 0 52.0154 0C80.7428 0 104.031 23.1692 104.031 51.75C104.031 72.6152 96.7242 78.4419 57.361 135.216C54.7779 138.928 49.2526 138.928 46.6697 135.216ZM52.0154 73.3125C63.9852 73.3125 73.6885 63.6587 73.6885 51.75C73.6885 39.8413 63.9852 30.1875 52.0154 30.1875C40.0456 30.1875 30.3423 39.8413 30.3423 51.75C30.3423 63.6587 40.0456 73.3125 52.0154 73.3125Z" fill="url(#paint0_linear_4_222)"/>
<defs>
<linearGradient id="paint0_linear_4_222" x1="11.1309" y1="7.25266" x2="97.7426" y2="128.254" gradientUnits="userSpaceOnUse">
<stop stop-color="#FFDA16"/>
<stop offset="1" stop-color="#BD00FF"/>
</linearGradient>
</defs>
</svg>
