<svg width="328" height="328" viewBox="0 0 328 328" fill="none" xmlns="http://www.w3.org/2000/svg">
<rect x="19" y="19" width="290" height="290" rx="44.2073" fill="white"/>
<path d="M206.092 165.733C206.092 183.115 202.712 197.778 195.952 209.721C189.193 221.614 180.07 230.635 168.584 236.785C157.098 242.884 144.29 245.933 130.161 245.933C115.93 245.933 103.072 242.859 91.5857 236.709C80.1503 230.508 71.0529 221.462 64.2933 209.569C57.5845 197.625 54.2302 183.013 54.2302 165.733C54.2302 148.352 57.5845 133.714 64.2933 121.822C71.0529 109.878 80.1503 100.857 91.5857 94.7579C103.072 88.6082 115.93 85.5334 130.161 85.5334C144.29 85.5334 157.098 88.6082 168.584 94.7579C180.07 100.857 189.193 109.878 195.952 121.822C202.712 133.714 206.092 148.352 206.092 165.733ZM162.485 165.733C162.485 156.382 161.24 148.504 158.749 142.1C156.31 135.646 152.676 130.767 147.848 127.463C143.07 124.109 137.175 122.431 130.161 122.431C123.147 122.431 117.226 124.109 112.398 127.463C107.621 130.767 103.987 135.646 101.496 142.1C99.0568 148.504 97.837 156.382 97.837 165.733C97.837 175.085 99.0568 182.988 101.496 189.443C103.987 195.846 107.621 200.726 112.398 204.08C117.226 207.384 123.147 209.035 130.161 209.035C137.175 209.035 143.07 207.384 147.848 204.08C152.676 200.726 156.31 195.846 158.749 189.443C161.24 182.988 162.485 175.085 162.485 165.733Z" fill="black"/>
<path d="M228.384 87.668H270.161V194.703C270.11 204.868 267.544 213.813 262.461 221.538C257.43 229.212 250.467 235.21 241.573 239.53C232.729 243.799 222.539 245.933 211.002 245.933C200.99 245.933 191.842 244.205 183.557 240.749C175.273 237.242 168.666 231.754 163.736 224.282C158.806 216.76 156.367 207.002 156.418 195.008H198.805C198.957 198.921 199.618 202.225 200.787 204.919C202.006 207.612 203.684 209.645 205.818 211.017C208.004 212.339 210.647 213 213.747 213C216.898 213 219.541 212.313 221.675 210.941C223.861 209.569 225.513 207.536 226.631 204.842C227.749 202.098 228.333 198.718 228.384 194.703V87.668Z" fill="black"/>
</svg>
